# xmcd CD database file
#
# Track frame offsets:
#	150
#	14709
#	29610
#	42731
#	56801
#	70299
#	84169
#	98281
#	112223
#	124614
#	139701
#	152229
#	164709
#	178451
#	191460
#	202873
#	215136
#	228411
#	239496
#	251160
#
# Disc length: 3532 seconds
#
# Revision: 2
# Processed by: cddbd v1.5.2PL0 Copyright (c) Steve Scherf et al.
# Submitted via: CDex 1.51
#
DISCID=300dca14
DTITLE=Miles Davis - Vol.1 - Out of the Blues - Early Miles 1945-1947 (1)
DYEAR=1900
DGENRE=Jazz
TTITLE0=Billie's Bounce (Charlie Parker) Charlie Parker Rebeboppers feat. Miles Davis
TTITLE1=Now's The Time (Charlie Parker) Charlie Parker Rebeboppers feat. Miles Davis
TTITLE2=Triving On A Riff (Charlie Parker) Charlie Parker Rebeboppers feat. Miles Davis
TTITLE3=Moose The Mooche (Charlie Parker) Charlie Parker Septet
TTITLE4=Yardbird Suite (Charlie Parker) Charlie Parker Septet
TTITLE5=Ornithology (Charlie Parker) Charlie Parker Septet
TTITLE6=Night In Tunisia (Dizzy Gillespie) Charlie Parker Septet
TTITLE7=Oo Bop Sh' Bam Walter (Gil' Fuller - Dizzy Gillespie) Billy Eckstine And His Orchestra
TTITLE8=I love The Loveliness Of You (Billy Eckstine - Walter Kirby, Bob Schell) Billy Eckstine And His Orchestra
TTITLE9=Jelly Jelly (Billy Eckstine - Earl Hines) Billy Eckstine And His Orchestra
TTITLE10=For Europeans Only (Tadd Dameron - Illinois Jacquet) Illinois Jacquet And His Orchestra)
TTITLE11=Big Dog  (Bill Dogget) Illinois Jacquet And His Orchestra)
TTITLE12=You Left Me All Alone (Bill Dogget) Illinois Jacquet And His Orchestra)
TTITLE13=Jivin' With Jack The Bellboy (Illinois Jacquet) Illinois Jacquet And His Orchestra)
TTITLE14=Donna Lee (Charlie Parker) Charlie Parker All Stars
TTITLE15=Chasin' The Bird (Charlie Parker) Charlie Parker All Stars
TTITLE16=Cheryl (Charlie Parker) Charlie Parker All Stars
TTITLE17=Buzzy (Charlie Parker) Charlie Parker All Stars
TTITLE18=Bean-A-Re-Bop (Coleman Hawkins - Hank Jones) Coleman Hawkins All Star
TTITLE19=Isn't It Romantic ¿ (Lorenz Hart - Richard Rodgers) Coleman Hawkins All Star
EXTD=
EXTT0=
EXTT1=
EXTT2=
EXTT3=
EXTT4=
EXTT5=
EXTT6=
EXTT7=
EXTT8=
EXTT9=
EXTT10=
EXTT11=
EXTT12=
EXTT13=
EXTT14=
EXTT15=
EXTT16=
EXTT17=
EXTT18=
EXTT19=
PLAYORDER=
